<svg viewBox="0 0 2000 1400" xmlns="http://www.w3.org/2000/svg"><path fill="transparent" d="M0 0h2000v1400H0z"/><rect x="94" y="1051" width="13" height="25" fill="#090238" rx="0" transform="matrix(-.88086 .60328 -.48866 -.80059 634.837 1847.265)"/><rect x="1207" y="591" width="11" height="17" fill="#090238" rx="0" transform="matrix(-.9305 .1769 -.37588 -1.00324 2580.64 1222.14)"/><rect x="683" y="1030" width="13" height="32" fill="#FF14BD" rx="0" transform="matrix(.54216 .89976 -.83516 .45845 1149.351 42.975)"/><rect x="503" y="46" width="12" height="12" fill="#dcc5ff" rx="0" transform="matrix(.83642 .66954 -.56463 .7436 119.959 -309.687)"/><rect x="1383" y="319" width="13" height="30" fill="#dcc5ff" rx="0" transform="matrix(.99237 .37483 -.21163 .92775 135.044 -448.179)"/><rect x="1951" y="804" width="12" height="27" fill="#dcc5ff" rx="0" transform="matrix(.8157 .39457 -.61274 .92955 804.58 -989.622)"/><rect x="536" y="819" width="13" height="38" fill="#090238" rx="0" transform="matrix(1.0579 .42288 -.09607 .90686 327.535 -132.415)"/><rect x="1363" y="448" width="11" height="19" fill="#090238" rx="0" transform="matrix(.63161 .887 -.71723 .57602 668.518 -548.67)"/><rect x="549" y="185" width="13" height="15" fill="#8934FF" rx="0" transform="matrix(1.05259 .5189 -.17533 .8636 74.397 -193.79)"/><rect x="1686" y="860" width="7" height="8" fill="#FF14BD" rx="0" transform="matrix(.8996 .4851 -.43847 .87515 618.88 -770.716)"/><rect x="1458" y="441" width="13" height="22" fill="#dcc5ff" rx="0" transform="matrix(-.75791 .57436 -.65865 -.82028 2899.88 58.36)"/><rect x="1426" y="407" width="7" height="17" fill="#dcc5ff" rx="0" transform="matrix(-.10203 .89657 -1.06111 -.47671 2170.36 -416.01)"/><rect x="192" y="448" width="11" height="15" fill="#090238" rx="0" transform="matrix(.59054 1.02094 -.94854 .0535 674.57 271.473)"/><rect x="788" y="1057" width="13" height="19" fill="#8934FF" rx="0" transform="matrix(-.86048 .32492 -.4294 -1 1726.303 2133)"/><rect x="529" y="158" width="7" height="19" fill="#FF14BD" rx="0" transform="matrix(-.40478 .73942 -.94764 -.73942 935.673 60.415)"/><rect x="1107" y="964" width="9" height="10" fill="#dcc5ff" rx="0" transform="matrix(.98935 .01758 -.19197 1.00736 154.226 -163.147)"/><rect x="1441" y="341" width="11" height="16" fill="#8934FF" rx="0" transform="matrix(-.99322 -.03498 .14175 -1.00183 2754.351 850.394)"/><rect x="1326" y="932" width="7" height="13" fill="#FF14BD" rx="0" transform="matrix(.55811 .78993 -.82988 .61716 1221.37 -597.96)"/><rect x="1594" y="575" width="8" height="20" fill="#090238" rx="0" transform="matrix(-.64804 .58073 -.7965 -.82936 3202.414 395.275)"/><rect x="198" y="1037" width="10" height="18" fill="#8934FF" rx="0" transform="matrix(.54456 .8388 -.83854 .54472 987.763 302.401)"/><rect x="1192" y="158" width="11" height="17" fill="#090238" rx="0" transform="matrix(-.73836 .50275 -.71017 -.8708 2241.017 -164.698)"/><rect x="1069" y="1306" width="13" height="14" fill="#dcc5ff" rx="0" transform="matrix(-.94545 .15797 -.36088 -.9974 2966.231 2301.53)"/><rect x="1617" y="1013" width="11" height="29" fill="#090238" rx="0" transform="matrix(-.45603 .74724 -.92765 -.67282 3526.812 676.956)"/><rect x="1321" y="356" width="9" height="10" fill="#8934FF" rx="0" transform="matrix(1.06848 .32577 .0334 .9461 37.42 -366.056)"/><rect x="1266" y="868" width="12" height="34" fill="#dcc5ff" rx="0" transform="matrix(-.25994 1.002 -.9707 -.10531 2436.257 -452.512)"/><rect x="540" y="678" width="9" height="9" fill="#090238" rx="0" transform="matrix(-.51504 .78478 -.85717 -.6355 1409.955 765.442)"/><rect x="1586" y="126" width="7" height="9" fill="#090238" rx="0" transform="matrix(-.91188 .19107 -.54245 -.98297 3175.088 38.373)"/><rect x="91" y="859" width="13" height="31" fill="#dcc5ff" rx="0" transform="matrix(.81788 .39676 -.59362 .9347 491.952 1.225)"/><rect x="459" y="183" width="8" height="21" fill="#8934FF" rx="0" transform="matrix(.46686 .86044 -.88168 .517 384.562 -264.418)"/><rect x="298" y="146" width="13" height="38" fill="#FF14BD" rx="0" transform="matrix(-.37011 .93415 -.92096 -.37742 584.826 -94.561)"/><rect x="669" y="932" width="12" height="29" fill="#FF14BD" rx="0" transform="matrix(.33288 1.03967 -.97347 -.0363 1471.438 472.642)"/><rect x="1637" y="781" width="7" height="12" fill="#dcc5ff" rx="0" transform="matrix(.08384 1.01 -.99596 -.07063 2447.96 -1074.15)"/><rect x="342" y="975" width="9" height="17" fill="#dcc5ff" rx="0" transform="matrix(-.46256 .98169 -.91186 -.22664 1288.06 823.701)"/><rect x="879" y="538" width="12" height="13" fill="#090238" rx="0" transform="matrix(-.26561 .87475 -.99595 -.48488 1804.12 18.915)"/><rect x="1078" y="436" width="12" height="18" fill="#FF14BD" rx="0" transform="matrix(-.4245 .66558 -.97823 -.82193 2109.07 462.517)"/><rect x="1061" y="511" width="13" height="20" fill="#dcc5ff" rx="0" transform="matrix(.45294 .9783 -.9259 .20794 1200.99 -650.303)"/><rect x="1959" y="1110" width="11" height="28" fill="#090238" rx="0" transform="matrix(1.03958 .12204 .27247 .9939 38.45 -129.939)"/><rect x="1619" y="1267" width="9" height="15" fill="#090238" rx="0" transform="matrix(.10517 1.00261 -1.01218 -.1409 2876.776 83.484)"/><rect x="71" y="688" width="12" height="12" fill="#8934FF" rx="0" transform="matrix(.7798 .91562 -.71183 .44658 648.775 328.541)"/><rect x="273" y="1139" width="10" height="10" fill="#8934FF" rx="0" transform="matrix(.89697 .56056 -.45412 .83106 766.747 17.99)"/><rect x="527" y="1322" width="9" height="25" fill="#8934FF" rx="0" transform="matrix(-.0342 .989 -1.01777 .19224 1774.484 487.04)"/><rect x="1902" y="316" width="8" height="10" fill="#8934FF" rx="0" transform="matrix(-.54993 .7211 -.85572 -.69635 3279.147 -963.16)"/><rect x="176" y="196" width="9" height="22" fill="#090238" rx="0" transform="matrix(.0859 .98274 -1.0422 -.2818 419.593 126.314)"/><rect x="405" y="996" width="9" height="19" fill="#090238" rx="0" transform="matrix(.25834 .9406 -.964 .36106 1289.679 207.002)"/><rect x="1638" y="927" width="7" height="13" fill="#FF14BD" rx="0" transform="matrix(.17512 .96291 -1.09542 -.31287 2787.56 -95.068)"/><rect x="1544" y="217" width="10" height="28" fill="#FF14BD" rx="0" transform="matrix(-.86936 .71802 -.52337 -.71802 3019.484 -988.474)"/><rect x="219" y="1159" width="8" height="23" fill="#dcc5ff" rx="0" transform="matrix(.67863 .91853 -.72786 .4884 902.085 457.95)"/><rect x="1881" y="702" width="10" height="26" fill="#FF14BD" rx="0" transform="matrix(.93571 .39288 -.34088 .92558 317.11 -489.538)"/><rect x="667" y="228" width="10" height="20" fill="#090238" rx="0" transform="matrix(.7145 .58922 -.71374 .811 345.019 -397.963)"/><rect x="383" y="212" width="7" height="18" fill="#dcc5ff" rx="0" transform="matrix(.63424 .84818 -.78268 .53 344.45 -230.697)"/><rect x="1260" y="387" width="11" height="19" fill="#FF14BD" rx="0" transform="matrix(.9239 .59003 -.4232 .8121 346.05 -782.901)"/><rect x="929" y="206" width="7" height="20" fill="#dcc5ff" rx="0" transform="matrix(-.9831 -.1246 .0195 -1.01472 1801.494 749.57)"/><rect x="505" y="12" width="7" height="13" fill="#8934FF" rx="0" transform="matrix(-.37666 .78478 -.96922 -.6355 733.825 -297.34)"/><rect x="1398" y="809" width="10" height="13" fill="#FF14BD" rx="0" transform="matrix(-.90508 .32577 -.44114 -.9461 3108.21 1178.984)"/><rect x="714" y="993" width="8" height="18" fill="#dcc5ff" rx="0" transform="matrix(-.61285 .59511 -.83684 -.8191 2173.253 1509.17)"/><rect x="926" y="1073" width="8" height="21" fill="#FF14BD" rx="0" transform="matrix(-.88814 .40829 -.45445 -.91704 2389.204 1616.033)"/><rect x="702" y="1105" width="7" height="12" fill="#090238" rx="0" transform="matrix(.8127 .90211 -.69441 .45965 1208.492 75.629)"/><rect x="1164" y="966" width="8" height="10" fill="#8934FF" rx="0" transform="matrix(-.9104 .25167 -.32202 -1.0094 2313.758 1992.092)"/><rect x="271" y="865" width="10" height="12" fill="#FF14BD" rx="0" transform="matrix(.32467 .96493 -.94324 .27669 976.696 387.828)"/><rect x="862" y="818" width="11" height="27" fill="#dcc5ff" rx="0" transform="matrix(.99802 .10454 -.0698 .99467 74.53 -71.12)"/><rect x="1873" y="1034" width="12" height="20" fill="#FF14BD" rx="0" transform="matrix(-.90056 .35102 -.37459 -.96441 3701.653 1825.085)"/><rect x="1467" y="1149" width="9" height="20" fill="#8934FF" rx="0" transform="matrix(-1.01155 .24325 -.05382 -.97564 2934.5 1777.157)"/><rect x="1356" y="592" width="10" height="28" fill="#FF14BD" rx="0" transform="matrix(-.85797 .55953 -.51521 -.82954 2783.738 394.705)"/><rect x="601" y="1209" width="12" height="20" fill="#8934FF" rx="0" transform="matrix(.74623 .6111 -.64612 .81096 1058.531 -247.523)"/><rect x="1219" y="907" width="10" height="17" fill="#FF14BD" rx="0" transform="matrix(.19254 .94783 -.98875 .32636 1835.496 -629.017)"/><rect x="357" y="263" width="9" height="13" fill="#FF14BD" rx="0" transform="matrix(.50805 .67945 -.90753 .7546 389.831 -243.232)"/><rect x="1657" y="1375" width="10" height="24" fill="#FF14BD" rx="0" transform="matrix(1.01087 .48547 -.23617 .87582 649.82 -547.52)"/><rect x="983" y="786" width="10" height="22" fill="#FF14BD" rx="0" transform="matrix(1.0432 .58173 -.17242 .86245 265.846 -181.813)"/><rect x="1545" y="238" width="13" height="36" fill="#8934FF" rx="0" transform="matrix(.75123 .9148 -.75867 .4073 689.79 -1186.268)"/><rect x="949" y="323" width="9" height="24" fill="#8934FF" rx="0" transform="matrix(.97907 .05299 -.19026 1.01108 86.904 -205.255)"/><rect x="923" y="1118" width="10" height="19" fill="#FF14BD" rx="0" transform="matrix(-.3705 .89591 -.9274 -.4565 2517.668 713.249)"/><rect x="602" y="1130" width="13" height="38" fill="#FF14BD" rx="0" transform="matrix(-.73088 .68241 -.68161 -.7318 1875.796 1553.34)"/><rect x="1476" y="1134" width="11" height="22" fill="#FF14BD" rx="0" transform="matrix(-.12384 .87454 -1.07197 -.50491 3280.393 635.712)"/><rect x="1846" y="177" width="13" height="34" fill="#dcc5ff" rx="0" transform="matrix(-.93358 .32577 -.35837 -.9461 3651.481 -161.25)"/><rect x="1592" y="631" width="9" height="24" fill="#dcc5ff" rx="0" transform="matrix(.9545 .22499 -.31034 .97452 201.676 -314.937)"/><rect x="1067" y="198" width="11" height="28" fill="#dcc5ff" rx="0" transform="matrix(.22371 .98188 -.9709 .2087 1017.014 -791.485)"/><rect x="448" y="778" width="11" height="17" fill="#dcc5ff" rx="0" transform="matrix(-.82183 .5634 -.55655 -.83526 1353.658 1132.254)"/><rect x="1128" y="71" width="8" height="11" fill="#FF14BD" rx="0" transform="matrix(-.72442 .57498 -.70462 -.82115 2005.337 -590.713)"/><rect x="778" y="761" width="8" height="20" fill="#8934FF" rx="0" transform="matrix(-.03505 .99034 -1.0023 -.2105 1597.805 282.709)"/><rect x="272" y="608" width="12" height="15" fill="#FF14BD" rx="0" transform="matrix(-.4689 .64338 -.97524 -.7945 1176.81 984.75)"/><rect x="1123" y="1308" width="13" height="20" fill="#8934FF" rx="0" transform="matrix(-.90612 .21256 -.44166 -1 2789.48 2636)"/><rect x="1196" y="492" width="10" height="25" fill="#090238" rx="0" transform="matrix(-.86759 .55953 -.50095 -.82954 2479.55 209.065)"/><rect x="790" y="1009" width="9" height="20" fill="#8934FF" rx="0" transform="matrix(.997 .40773 -.21332 .91578 370.776 -182.56)"/><rect x="1308" y="494" width="10" height="22" fill="#090238" rx="0" transform="matrix(-.91287 .30906 -.42605 -.9512 2794.506 556.637)"/><rect x="683" y="178" width="12" height="15" fill="#dcc5ff" rx="0" transform="matrix(-1.0506 -.15993 -.38042 -1.00975 1591.285 629.452)"/><rect x="260" y="906" width="7" height="20" fill="#8934FF" rx="0" transform="matrix(-.18884 1.01295 -.974 -.07083 1251.02 667.507)"/><rect x="931" y="903" width="7" height="11" fill="#090238" rx="0" transform="matrix(-.32219 .71316 -1.0567 -.76477 2493.35 1222.551)"/><rect x="339" y="726" width="9" height="9" fill="#090238" rx="0" transform="matrix(-.12324 .87401 -1.06714 -.54614 1338.858 914.879)"/><rect x="31" y="242" width="7" height="9" fill="#8934FF" rx="0" transform="matrix(.10453 .9927 -.99452 .12189 276.043 181.604)"/><rect x="501" y="991" width="10" height="15" fill="#dcc5ff" rx="0" transform="matrix(-.46387 .867 -.86355 -.54176 1447.53 1208.3)"/><rect x="311" y="641" width="7" height="12" fill="#090238" rx="0" transform="matrix(.42772 1.04314 -.98855 -.07294 964.028 462.278)"/><rect x="750" y="176" width="9" height="26" fill="#8934FF" rx="0" transform="matrix(-.18584 .88223 -1.0262 -.50936 1141.827 -233.717)"/><rect x="1096" y="483" width="12" height="32" fill="#FF14BD" rx="0" transform="matrix(.8247 .59102 -.55688 .81347 428.076 -442.406)"/><rect x="1307" y="876" width="7" height="12" fill="#8934FF" rx="0" transform="matrix(.58575 .76038 -.80596 .66099 1278.914 -858.373)"/><rect x="1797" y="814" width="7" height="16" fill="#FF14BD" rx="0" transform="matrix(.95982 .57631 -.31218 .85442 373.344 -469.065)"/><rect x="872" y="454" width="13" height="16" fill="#dcc5ff" rx="0" transform="matrix(-.9892 .19127 -.13905 -.98402 1818.75 687.153)"/><rect x="485" y="718" width="13" height="29" fill="#FF14BD" rx="0" transform="matrix(.82145 .8322 -.64755 .56133 741.128 -44.701)"/><rect x="1669" y="1264" width="10" height="29" fill="#090238" rx="0" transform="matrix(-.27426 .96216 -.93405 -.36934 3058.693 557.418)"/><rect x="1570" y="19" width="8" height="13" fill="#090238" rx="0" transform="matrix(-.3939 .83982 -.93493 -.54539 2204.678 -1364.962)"/><rect x="399" y="992" width="10" height="16" fill="#FF14BD" rx="0" transform="matrix(-1.00737 .06976 .07044 -.99756 599.994 1969.382)"/><rect x="1486" y="190" width="9" height="13" fill="#090238" rx="0" transform="matrix(.35781 .93586 -.93118 .35924 1146.61 -1373.217)"/><rect x="1506" y="546" width="13" height="18" fill="#dcc5ff" rx="0" transform="matrix(.70449 .99004 -.79468 .30269 1057.326 -705.152)"/><rect x="1444" y="915" width="9" height="9" fill="#090238" rx="0" transform="matrix(-1.01885 -.16122 -.23022 -1.01793 3315.976 2450.166)"/><rect x="1981" y="680" width="7" height="20" fill="#090238" rx="0" transform="matrix(.43223 .96828 -.91694 .25945 1896.866 -1549.352)"/><rect x="410" y="51" width="9" height="17" fill="#8934FF" rx="0" transform="matrix(-.51345 .78913 -.85143 -.63903 673.83 -302.662)"/><rect x="293" y="1042" width="13" height="36" fill="#8934FF" rx="0" transform="matrix(.15616 .98188 -.98526 .2087 1333.205 518.495)"/><rect x="1882" y="1036" width="11" height="17" fill="#FF14BD" rx="0" transform="matrix(-.40674 .81213 -.91355 -.6345 3609.414 644.947)"/><rect x="902" y="734" width="13" height="35" fill="#dcc5ff" rx="0" transform="matrix(1.09023 .7435 -.25477 .7435 389.95 -187.514)"/><rect x="142" y="246" width="8" height="21" fill="#dcc5ff" rx="0" transform="matrix(1.02653 .7731 -.36921 .6961 159.713 6.945)"/><rect x="1480" y="698" width="10" height="26" fill="#FF14BD" rx="0" transform="matrix(.10365 1.01732 -.9884 -.05332 1998.932 -473.159)"/><rect x="1785" y="742" width="7" height="19" fill="#090238" rx="0" transform="matrix(.93503 .50191 -.37287 .86933 533.792 -955.943)"/><rect x="1210" y="677" width="12" height="33" fill="#090238" rx="0" transform="matrix(.06283 .95036 -1.0802 -.42313 2110.242 179.983)"/><rect x="1693" y="93" width="9" height="17" fill="#dcc5ff" rx="0" transform="matrix(1.08165 .46413 -.0317 .91091 -20.11 -418.008)"/><rect x="1677" y="101" width="12" height="16" fill="#FF14BD" rx="0" transform="matrix(-.89947 .29237 -.47826 -.9563 3270.131 -278.824)"/><rect x="614" y="98" width="12" height="19" fill="#dcc5ff" rx="0" transform="matrix(.33361 1.0457 -.92123 .1099 490.588 -351.2)"/><rect x="196" y="1216" width="10" height="19" fill="#FF14BD" rx="0" transform="matrix(.32666 .98188 -.94902 .2087 1341.77 789.957)"/><rect x="1540" y="1386" width="11" height="32" fill="#8934FF" rx="0" transform="matrix(.04045 1.00168 -1.00186 -.08764 3173.77 -185.673)"/><rect x="1582" y="1181" width="8" height="8" fill="#8934FF" rx="0" transform="matrix(.48739 1.02648 -.87946 .19953 1884.315 -194.548)"/><rect x="741" y="517" width="12" height="30" fill="#090238" rx="0" transform="matrix(.11988 .98857 -.99042 .17431 1100.399 -233.841)"/><rect x="1428" y="1059" width="12" height="30" fill="#090238" rx="0" transform="matrix(-.5316 .78993 -.85059 -.61716 3150.865 704.343)"/><rect x="1128" y="889" width="12" height="29" fill="#FF14BD" rx="0" transform="matrix(-.77282 .50491 -.64198 -.87454 2817.904 961.698)"/><rect x="1865" y="1207" width="7" height="10" fill="#dcc5ff" rx="0" transform="matrix(1.10595 .47671 -.0177 .89657 324.342 -435.914)"/><rect x="897" y="777" width="9" height="9" fill="#dcc5ff" rx="0" transform="matrix(.71004 .90977 -.76808 .42423 1060.291 -291.324)"/><rect x="883" y="518" width="10" height="14" fill="#090238" rx="0" transform="matrix(-.95073 -.01846 -.29056 -1.05746 1870.295 1402.32)"/><rect x="1376" y="622" width="9" height="23" fill="#8934FF" rx="0" transform="matrix(-.2576 .9347 -.96051 -.39676 2313.969 -162.094)"/><rect x="1911" y="492" width="12" height="18" fill="#dcc5ff" rx="0" transform="matrix(-1.02017 -.16195 -.26648 -1.02253 4166.884 1837.41)"/><rect x="721" y="1107" width="7" height="15" fill="#8934FF" rx="0" transform="matrix(.8549 .63716 -.51373 .78683 656.222 -109.302)"/><rect x="1799" y="386" width="10" height="13" fill="#dcc5ff" rx="0" transform="matrix(-.9772 -.01791 -.15413 -1.02615 3584.985 1244.062)"/><rect x="1342" y="499" width="10" height="17" fill="#FF14BD" rx="0" transform="matrix(-.9098 .24207 -.482 -.97089 2935 721.196)"/><rect x="720" y="38" width="13" height="17" fill="#dcc5ff" rx="0" transform="matrix(.60226 .82954 -.79925 .55953 327.374 -556.811)"/><rect x="740" y="387" width="13" height="26" fill="#8934FF" rx="0" transform="matrix(.62346 .86785 -.77766 .52146 672.946 -574.669)"/><rect x="1389" y="223" width="8" height="11" fill="#090238" rx="0" transform="matrix(.93686 .27716 -.34085 .96656 168.702 -524.846)"/><rect x="1528" y="819" width="8" height="16" fill="#8934FF" rx="0" transform="matrix(-.803 .23523 -.77301 -1.0189 3748.566 1777.63)"/><rect x="1153" y="967" width="10" height="14" fill="#8934FF" rx="0" transform="matrix(1.04197 .24325 .0682 .97564 117.863 -136.252)"/><rect x="1698" y="461" width="10" height="19" fill="#dcc5ff" rx="0" transform="matrix(.12142 1.01732 -.98934 -.05332 1947.722 -905.882)"/><rect x="998" y="656" width="12" height="30" fill="#dcc5ff" rx="0" transform="matrix(1.03218 .51535 -.22259 .85769 332.913 -386.863)"/><rect x="1199" y="621" width="11" height="12" fill="#FF14BD" rx="0" transform="matrix(.95953 .24251 -.27505 .97267 240.163 -359.194)"/><rect x="267" y="590" width="10" height="17" fill="#090238" rx="0" transform="matrix(-.81404 .54764 -.5725 -.84329 916.16 925.663)"/><rect x="1001" y="1028" width="9" height="20" fill="#FF14BD" rx="0" transform="matrix(-.66762 .62607 -.71131 -.83082 2275.73 1559.203)"/><rect x="640" y="1368" width="12" height="29" fill="#dcc5ff" rx="0" transform="matrix(-.92351 .36189 -.35745 -.94276 1918.295 2361.289)"/><rect x="176" y="375" width="11" height="26" fill="#FF14BD" rx="0" transform="matrix(.37682 1.05698 -.93294 .03691 482.95 244.333)"/><rect x="164" y="1283" width="8" height="22" fill="#090238" rx="0" transform="matrix(-.87907 .56469 -.4676 -.83718 965.13 2258.839)"/><rect x="1889" y="288" width="13" height="24" fill="#8934FF" rx="0" transform="matrix(.93065 .35102 -.29192 .96441 88.964 -217.065)"/><rect x="330" y="1230" width="13" height="34" fill="#090238" rx="0" transform="matrix(.51523 .8388 -.85759 .54472 1166.872 291.35)"/><rect x="428" y="82" width="13" height="18" fill="#FF14BD" rx="0" transform="matrix(.40963 1.03777 -.99225 -.07257 388.716 -228.715)"/><rect x="577" y="1251" width="10" height="15" fill="#090238" rx="0" transform="matrix(-1.02284 .19127 .03398 -.98402 941.643 2344.875)"/><rect x="1746" y="1013" width="13" height="15" fill="#dcc5ff" rx="0" transform="matrix(.50965 .96848 -.8864 .2777 1915.647 -744.983)"/><rect x="927" y="836" width="9" height="10" fill="#FF14BD" rx="0" transform="matrix(1.05976 .50191 -.15684 .86933 358.27 -276.143)"/><rect x="257" y="1285" width="11" height="25" fill="#dcc5ff" rx="0" transform="matrix(.77367 .60513 -.62584 .80303 960.246 69.126)"/><rect x="1445" y="1213" width="13" height="30" fill="#090238" rx="0" transform="matrix(.06041 1.03887 -.96575 -.05445 2289.335 203.144)"/><rect x="266" y="944" width="12" height="21" fill="#FF14BD" rx="0" transform="matrix(.74583 .89691 -.6489 .56045 651.9 269.244)"/><rect x="252" y="658" width="7" height="17" fill="#dcc5ff" rx="0" transform="matrix(1.02558 .39288 -.12917 .92558 201.812 -23.923)"/><rect x="415" y="909" width="11" height="26" fill="#dcc5ff" rx="0" transform="matrix(-.37236 .88632 -.93028 -.47126 1606.857 947.02)"/><rect x="1154" y="1177" width="13" height="27" fill="#FF14BD" rx="0" transform="matrix(-1.01175 -.14132 -.12287 -1.00554 2602.98 2756.23)"/><rect x="74" y="696" width="12" height="35" fill="#FF14BD" rx="0" transform="matrix(.77283 .91521 -.73226 .42677 721.343 347.025)"/><rect x="1691" y="854" width="12" height="20" fill="#8934FF" rx="0" transform="matrix(.78447 .59102 -.61225 .81347 942.675 -1020.169)"/><rect x="1077" y="1018" width="13" height="35" fill="#8934FF" rx="0" transform="matrix(.83429 .57674 -.5424 .82366 660.835 -328.417)"/><rect x="151" y="72" width="7" height="14" fill="#090238" rx="0" transform="matrix(-.22743 .7917 -1.07895 -.6411 308.209 37.362)"/><rect x="133" y="319" width="13" height="21" fill="#FF14BD" rx="0" transform="matrix(.8645 .95157 -.70161 .38446 360.667 102.282)"/><rect x="404" y="580" width="8" height="21" fill="#090238" rx="0" transform="matrix(.87437 .43897 -.48533 .90003 273.533 -98.685)"/><rect x="1135" y="1250" width="13" height="26" fill="#FF14BD" rx="0" transform="matrix(-.10488 .97324 -.99742 -.27907 2546.162 685.307)"/><rect x="160" y="1075" width="7" height="11" fill="#FF14BD" rx="0" transform="matrix(.26366 .99756 -.984 .06976 1393.636 842.026)"/><rect x="43" y="755" width="9" height="24" fill="#dcc5ff" rx="0" transform="matrix(-.4039 .91266 -.8987 -.44513 647.018 1073.442)"/><rect x="933" y="659" width="10" height="23" fill="#090238" rx="0" transform="matrix(.3045 1.00107 -1.0149 -.05246 1543.93 -167.734)"/><rect x="1303" y="61" width="7" height="9" fill="#FF14BD" rx="0" transform="matrix(.2496 1.01006 -1.05692 -.27064 1148.458 -836.98)"/><rect x="206" y="1076" width="11" height="32" fill="#FF14BD" rx="0" transform="matrix(-.22401 .92244 -.96994 -.47 1298.007 1466.822)"/><rect x="277" y="905" width="13" height="31" fill="#FF14BD" rx="0" transform="matrix(-.52067 .49652 -1.03477 -.93382 1714.423 1736.937)"/><rect x="745" y="469" width="10" height="25" fill="#8934FF" rx="0" transform="matrix(.1272 .93715 -1.01824 .35974 1079.006 -460.19)"/><rect x="587" y="41" width="12" height="34" fill="#8934FF" rx="0" transform="matrix(-.3888 .81266 -.9157 -.65808 872.487 -204.438)"/><rect x="942" y="874" width="7" height="13" fill="#dcc5ff" rx="0" transform="matrix(1.11738 .36173 .30547 .99384 11.928 -11.026)"/><rect x="1652" y="462" width="12" height="19" fill="#8934FF" rx="0" transform="matrix(1.04679 .51315 -.13565 .8888 137.019 -415.598)"/><rect x="311" y="850" width="10" height="16" fill="#090238" rx="0" transform="matrix(.3767 1.0446 -1.01697 -.16545 1257.45 778.669)"/><rect x="437" y="337" width="12" height="26" fill="#FF14BD" rx="0" transform="matrix(-.45887 .73538 -.93193 -.68575 1049.54 310.801)"/><rect x="726" y="398" width="7" height="11" fill="#8934FF" rx="0" transform="matrix(.73616 .71406 -.66429 .71406 416.237 -303)"/><rect x="361" y="797" width="13" height="24" fill="#090238" rx="0" transform="matrix(.77676 .99004 -.77258 .30269 933.315 298.76)"/><rect x="1898" y="1051" width="11" height="27" fill="#FF14BD" rx="0" transform="matrix(.30978 .9974 -.95355 .15797 2352.133 -734.683)"/><rect x="1144" y="1006" width="8" height="8" fill="#8934FF" rx="0" transform="matrix(-.45114 .70721 -.96285 -.70721 2993.067 932.443)"/><rect x="1326" y="937" width="8" height="13" fill="#FF14BD" rx="0" transform="matrix(.94633 .69476 -.45938 .71945 821.682 -682.552)"/><rect x="1552" y="102" width="9" height="21" fill="#dcc5ff" rx="0" transform="matrix(.71989 .80846 -.65396 .65468 440.955 -773.207)"/><rect x="1844" y="753" width="11" height="28" fill="#dcc5ff" rx="0" transform="matrix(.7536 .7885 -.67947 .61604 1093.734 -1099.228)"/><rect x="1043" y="728" width="13" height="14" fill="#dcc5ff" rx="0" transform="matrix(.97796 .10493 -.22567 .99832 166.536 -200.707)"/><rect x="366" y="1336" width="12" height="30" fill="#090238" rx="0" transform="matrix(-.59172 .96823 -.85191 -.29602 1538.405 1331.819)"/><rect x="1934" y="85" width="8" height="9" fill="#8934FF" rx="0" transform="matrix(.68593 .87475 -.76296 .48488 703.158 -1615.34)"/><rect x="1738" y="1025" width="12" height="12" fill="#090238" rx="0" transform="matrix(.96992 .48845 -.29751 .88119 468.134 -515.226)"/><rect x="503" y="1033" width="13" height="17" fill="#090238" rx="0" transform="matrix(.33209 1.03061 -.9703 0 1453.097 643.435)"/><rect x="516" y="382" width="11" height="20" fill="#090238" rx="0" transform="matrix(.95301 .62024 -.3476 .82308 188.12 -124.08)"/><rect x="1179" y="1376" width="9" height="18" fill="#FF14BD" rx="0" transform="matrix(-.99174 -.05299 -.05154 -1.01108 2346.205 3035.502)"/><rect x="1348" y="826" width="13" height="38" fill="#FF14BD" rx="0" transform="matrix(-.03503 .99255 -1.0032 -.12187 2323.59 -396.424)"/><rect x="427" y="216" width="13" height="27" fill="#FF14BD" rx="0" transform="matrix(.4073 .93415 -.91415 .35859 485.488 -272.888)"/><rect x="1407" y="280" width="10" height="21" fill="#8934FF" rx="0" transform="matrix(-.85197 .61716 -.52984 -.78993 2700.265 -252.724)"/><rect x="1326" y="1361" width="13" height="28" fill="#dcc5ff" rx="0" transform="matrix(-1.02978 -.19665 -.21257 -1.01168 3267.359 3360.324)"/><rect x="915" y="376" width="11" height="19" fill="#8934FF" rx="0" transform="matrix(.0173 1.0032 -.9974 -.03503 1272.798 -443.915)"/><rect x="74" y="1017" width="11" height="22" fill="#8934FF" rx="0" transform="matrix(-.98604 .01767 -.10286 -1.01231 190.866 2079.842)"/><rect x="177" y="1243" width="8" height="11" fill="#FF14BD" rx="0" transform="matrix(-.5357 .66618 -.88485 -.76635 1562.646 2116.627)"/><rect x="913" y="1024" width="10" height="25" fill="#FF14BD" rx="0" transform="matrix(-.6448 .61464 -.73948 -.84598 2184.287 1629.78)"/><rect x="1604" y="405" width="9" height="20" fill="#dcc5ff" rx="0" transform="matrix(-.43562 .8271 -.89256 -.60092 2653.175 -324.098)"/><rect x="303" y="1172" width="9" height="16" fill="#dcc5ff" rx="0" transform="matrix(.89517 .26076 -.4941 .97318 475.022 -86.293)"/><rect x="1936" y="783" width="7" height="9" fill="#dcc5ff" rx="0" transform="matrix(-.8334 .74873 -.5852 -.67416 3958.994 -371.897)"/><rect x="1824" y="134" width="11" height="30" fill="#dcc5ff" rx="0" transform="matrix(-.36056 .98354 -.9401 -.20906 2631.492 -1811.517)"/><rect x="476" y="862" width="7" height="13" fill="#FF14BD" rx="0" transform="matrix(-.08888 1.0081 -.97308 -.21428 1245.92 690.772)"/><rect x="1912" y="863" width="11" height="13" fill="#dcc5ff" rx="0" transform="matrix(-.26401 .89162 -.98117 -.47409 3376.52 -158.486)"/><rect x="1952" y="401" width="11" height="32" fill="#FF14BD" rx="0" transform="matrix(.42724 .95338 -.91008 .30977 1555.132 -1715.296)"/><rect x="807" y="505" width="7" height="9" fill="#dcc5ff" rx="0" transform="matrix(.75948 .95036 -.7141 .42313 649.868 -243.944)"/><rect x="1092" y="290" width="7" height="20" fill="#8934FF" rx="0" transform="matrix(-.5892 .50936 -.94271 -.88223 2190.458 219.612)"/><rect x="228" y="1162" width="13" height="19" fill="#FF14BD" rx="0" transform="matrix(.17484 .99772 -.99006 .06977 1496.699 851.71)"/><rect x="1922" y="1265" width="10" height="10" fill="#dcc5ff" rx="0" transform="matrix(-.76012 .74326 -.66101 -.66923 4101.289 654.031)"/><rect x="942" y="537" width="11" height="14" fill="#090238" rx="0" transform="matrix(.74056 .78683 -.67122 .63716 731.403 -698.211)"/><rect x="1122" y="63" width="13" height="21" fill="#FF14BD" rx="0" transform="matrix(-.27263 .84857 -1.0081 -.53024 1540.51 -805.725)"/><rect x="755" y="100" width="9" height="10" fill="#dcc5ff" rx="0" transform="matrix(-.36142 1 -.94276 -.15838 1133.793 -758.163)"/><rect x="239" y="634" width="12" height="19" fill="#dcc5ff" rx="0" transform="matrix(-.27478 .9563 -.95642 -.31072 880.98 634.906)"/><rect x="1775" y="822" width="7" height="13" fill="#8934FF" rx="0" transform="matrix(-.45837 .98526 -.90067 -.24565 3312.936 -1033.865)"/><rect x="1704" y="1312" width="11" height="26" fill="#FF14BD" rx="0" transform="matrix(-.15607 .98354 -.98357 -.20906 3200.675 100.322)"/><rect x="1673" y="833" width="12" height="13" fill="#8934FF" rx="0" transform="matrix(.84092 .94472 -.70157 .401 1184.866 -695.7)"/><rect x="798" y="1137" width="10" height="17" fill="#8934FF" rx="0" transform="matrix(.71934 .92839 -.69466 .49363 1021.101 95.462)"/><rect x="988" y="1194" width="8" height="11" fill="#dcc5ff" rx="0" transform="matrix(.9078 .80456 -.50779 .65152 880.467 -114.317)"/><rect x="848" y="343" width="12" height="14" fill="#dcc5ff" rx="0" transform="matrix(.31855 1.01185 -.99941 -.03533 1026.076 -366.491)"/><rect x="1635" y="951" width="8" height="20" fill="#dcc5ff" rx="0" transform="matrix(1.03246 .1392 .16213 .99042 74.759 -190.323)"/><rect x="918" y="505" width="10" height="12" fill="#FF14BD" rx="0" transform="matrix(-.27952 .84465 -.97328 -.6365 1707.289 374.447)"/><rect x="294" y="1075" width="11" height="22" fill="#dcc5ff" rx="0" transform="matrix(-1.00178 -.10648 -.14025 -1.01314 811.811 2276.375)"/><rect x="1881" y="1005" width="8" height="22" fill="#dcc5ff" rx="0" transform="matrix(-.73588 .58814 -.6874 -.80951 4121.04 663.986)"/><rect x="1728" y="887" width="8" height="19" fill="#FF14BD" rx="0" transform="matrix(.14046 1.0043 -1.01049 -.10556 2514.442 -504.893)"/><rect x="29" y="35" width="9" height="20" fill="#dcc5ff" rx="0" transform="matrix(-.42261 .66247 -1.00586 -.7895 106.224 66.687)"/><rect x="155" y="456" width="11" height="16" fill="#090238" rx="0" transform="matrix(.15347 1.02218 -.97562 .01784 553.723 325.776)"/><rect x="572" y="136" width="12" height="23" fill="#FF14BD" rx="0" transform="matrix(.0524 1 -.9917 .15838 696.916 -545.408)"/><rect x="20" y="380" width="9" height="9" fill="#090238" rx="0" transform="matrix(.99832 -.01746 .07008 1.00046 6.661 -.603)"/><rect x="12" y="1303" width="8" height="10" fill="#090238" rx="0" transform="matrix(.91916 .4565 -.38667 .89591 737.39 127.158)"/><rect x="1221" y="483" width="13" height="33" fill="#FF14BD" rx="0" transform="matrix(.4063 1.0345 -.88028 .2199 1071.535 -457.534)"/><rect x="28" y="312" width="11" height="31" fill="#dcc5ff" rx="0" transform="matrix(-.35501 .82228 -.96755 -.57577 420.529 491.448)"/><rect x="1677" y="888" width="10" height="26" fill="#dcc5ff" rx="0" transform="matrix(.63301 .83982 -.77964 .54539 1448.472 -1091.123)"/><rect x="985" y="1287" width="13" height="27" fill="#dcc5ff" rx="0" transform="matrix(1.06759 .34249 .01337 .94098 355.04 -210.863)"/><rect x="494" y="378" width="13" height="24" fill="#090238" rx="0" transform="matrix(.85592 .51574 -.51446 .85834 250.937 -176.654)"/><rect x="547" y="453" width="13" height="29" fill="#090238" rx="0" transform="matrix(-.78314 .48666 -.64199 -.87796 1399.39 560.154)"/><rect x="1851" y="1327" width="11" height="22" fill="#090238" rx="0" transform="matrix(-.0869 .97496 -1.00561 -.22509 3587.849 -235.683)"/><rect x="246" y="502" width="12" height="24" fill="#090238" rx="0" transform="matrix(-.59556 .74873 -.79936 -.67416 915.628 640.895)"/><rect x="650" y="349" width="13" height="34" fill="#FF14BD" rx="0" transform="matrix(-.5049 .7671 -.87996 -.64367 1386.586 63.58)"/><rect x="614" y="919" width="9" height="18" fill="#FF14BD" rx="0" transform="matrix(.61188 .984 -.8523 .26366 1215.821 194.938)"/><rect x="405" y="1328" width="8" height="12" fill="#dcc5ff" rx="0" transform="matrix(1.00861 .24192 -.08824 .9703 325.477 -59.32)"/><rect x="1860" y="188" width="12" height="31" fill="#FF14BD" rx="0" transform="matrix(-.64988 .55127 -.77395 -.88222 3261.966 -110.58)"/><rect x="444" y="1203" width="10" height="16" fill="#090238" rx="0" transform="matrix(-.87722 .76038 -.55258 -.66099 1308.236 1614.914)"/><rect x="1051" y="1345" width="11" height="16" fill="#090238" rx="0" transform="matrix(-1.02686 -.17822 -.21242 -1.01071 2681.7 3152.69)"/><rect x="1680" y="621" width="13" height="34" fill="#FF14BD" rx="0" transform="matrix(1.07715 .29398 .12162 .96157 57.187 -294.026)"/><rect x="1058" y="386" width="10" height="11" fill="#FF14BD" rx="0" transform="matrix(.84805 .63405 -.52992 .78298 368.988 -458.509)"/><rect x="1479" y="595" width="12" height="34" fill="#FF14BD" rx="0" transform="matrix(-.70884 .46593 -.75507 -.91444 3116.96 822.57)"/><rect x="1193" y="356" width="11" height="23" fill="#dcc5ff" rx="0" transform="matrix(-.24213 .97756 -.93483 -.3558 1706.84 -329.686)"/><rect x="1979" y="780" width="13" height="37" fill="#8934FF" rx="0" transform="matrix(-1.06323 -.19507 -.34353 -1.00356 4767.426 2409.187)"/><rect x="902" y="32" width="11" height="17" fill="#8934FF" rx="0" transform="matrix(.77156 .81358 -.64772 .61308 241.12 -546.256)"/><rect x="1246" y="1207" width="11" height="32" fill="#dcc5ff" rx="0" transform="matrix(1.04252 .36034 -.05929 .93872 307.212 -244.488)"/><rect x="690" y="1101" width="11" height="13" fill="#FF14BD" rx="0" transform="matrix(-.62746 .62334 -.80116 -.79783 2125.711 1667.727)"/><rect x="1412" y="124" width="12" height="17" fill="#090238" rx="0" transform="matrix(-.79325 .73538 -.62012 -.68575 2625.86 -968.447)"/><rect x="1525" y="530" width="10" height="16" fill="#dcc5ff" rx="0" transform="matrix(.93439 .78139 -.43845 .70357 426.832 -538.916)"/><rect x="1809" y="207" width="8" height="11" fill="#090238" rx="0" transform="matrix(-1.00387 -.10686 -.19348 -1.01674 3726.44 1007.666)"/><rect x="1970" y="606" width="13" height="20" fill="#FF14BD" rx="0" transform="matrix(-.99977 .25945 -.1231 -.96828 3994.964 561.448)"/><rect x="95" y="490" width="12" height="24" fill="#FF14BD" rx="0" transform="matrix(-.4007 .83526 -.92696 -.5634 756.487 688.06)"/><rect x="689" y="1068" width="8" height="18" fill="#8934FF" rx="0" transform="matrix(-.89033 .29309 -.49984 -.95864 2143.251 1857.888)"/><rect x="1226" y="1105" width="12" height="19" fill="#FF14BD" rx="0" transform="matrix(-.94526 .15797 -.36212 -.9974 2890.178 2204.622)"/><rect x="1059" y="1272" width="9" height="24" fill="#dcc5ff" rx="0" transform="matrix(-.52166 .87682 -.8393 -.50623 2832.925 833.062)"/><rect x="769" y="888" width="11" height="16" fill="#8934FF" rx="0" transform="matrix(.59804 1.0081 -.86486 .21428 1258.728 116.345)"/><rect x="970" y="1384" width="8" height="21" fill="#090238" rx="0" transform="matrix(-.95149 .34207 -.30916 -.93984 2307.835 2354.921)"/><rect x="1065" y="932" width="9" height="22" fill="#8934FF" rx="0" transform="matrix(-.94466 .24196 -.3441 -.97044 2517.801 1580.685)"/><rect x="1771" y="820" width="11" height="26" fill="#8934FF" rx="0" transform="matrix(.97095 .08749 -.33203 1 220.871 -310.847)"/><rect x="1721" y="1115" width="12" height="18" fill="#dcc5ff" rx="0" transform="matrix(.88925 .36106 -.45305 .9406 716.416 -768.823)"/><rect x="1953" y="1375" width="8" height="11" fill="#FF14BD" rx="0" transform="matrix(-1.00482 -.05314 -.35598 -1.01404 4813.23 3229.449)"/><rect x="737" y="1336" width="8" height="15" fill="#090238" rx="0" transform="matrix(.70316 .96157 -.82498 .29398 1790.156 313.892)"/><rect x="823" y="902" width="13" height="28" fill="#8934FF" rx="0" transform="matrix(.62441 .90617 -.77154 .48182 979.6 -85.513)"/><rect x="702" y="201" width="12" height="15" fill="#8934FF" rx="0" transform="matrix(.57623 .87515 -.82325 .4851 487.981 -487.529)"/><rect x="978" y="391" width="10" height="12" fill="#dcc5ff" rx="0" transform="matrix(.668 .76897 -.73993 .64524 658.298 -701.06)"/><rect x="997" y="367" width="7" height="7" fill="#dcc5ff" rx="0" transform="matrix(-.93743 .20794 -.39875 -.9783 2161.174 507.448)"/><rect x="996" y="508" width="13" height="21" fill="#090238" rx="0" transform="matrix(.23087 1 -1.0533 -.23087 1490.33 -132.85)"/><rect x="1446" y="588" width="10" height="16" fill="#090238" rx="0" transform="matrix(.991 .12233 -.1032 .99634 123.853 -302.271)"/><rect x="976" y="453" width="12" height="31" fill="#dcc5ff" rx="0" transform="matrix(.93658 .5381 -.35958 .86113 241.943 -290.195)"/><rect x="719" y="196" width="13" height="29" fill="#dcc5ff" rx="0" transform="matrix(.90897 .52146 -.40491 .86785 139.91 -235.593)"/><rect x="1417" y="729" width="13" height="29" fill="#dcc5ff" rx="0" transform="matrix(.68955 .63903 -.71335 .78913 998.115 -1003.88)"/><rect x="1314" y="804" width="13" height="17" fill="#8934FF" rx="0" transform="matrix(1.03763 .42423 -.13198 .90977 271.792 -371.358)"/><rect x="1570" y="382" width="13" height="16" fill="#FF14BD" rx="0" transform="matrix(-1.00533 .17431 -.03535 -.98857 3161.977 362.814)"/><rect x="402" y="704" width="12" height="22" fill="#8934FF" rx="0" transform="matrix(.7732 .7283 -.62638 .70332 513.167 -20.4)"/><rect x="1170" y="1196" width="7" height="9" fill="#FF14BD" rx="0" transform="matrix(-.9205 .35859 -.39073 -.93415 2722.785 1942.125)"/><rect x="1908" y="662" width="12" height="33" fill="#8934FF" rx="0" transform="matrix(-.53874 .7917 -.82686 -.6411 3414.253 -29.768)"/><rect x="361" y="732" width="12" height="33" fill="#8934FF" rx="0" transform="matrix(.94982 .40648 -.22252 .9576 95.238 -12.206)"/><rect x="995" y="338" width="12" height="28" fill="#dcc5ff" rx="0" transform="matrix(.52143 .99133 -.86903 .26563 815.51 -502.727)"/><rect x="107" y="886" width="10" height="12" fill="#FF14BD" rx="0" transform="matrix(-.68355 .77762 -.73245 -.6297 747.74 1370.514)"/><rect x="229" y="239" width="9" height="13" fill="#090238" rx="0" transform="matrix(-.98654 .05299 -.04777 -1.01108 430.844 518.33)"/><rect x="1494" y="677" width="13" height="31" fill="#dcc5ff" rx="0" transform="matrix(-.9936 .5201 -.26908 -.8656 3110.048 300.63)"/><rect x="1464" y="386" width="8" height="19" fill="#FF14BD" rx="0" transform="matrix(.3073 .92493 -.94434 .4118 1398.924 -1357.68)"/><rect x="1679" y="1098" width="7" height="15" fill="#dcc5ff" rx="0" transform="matrix(-.13891 .989 -.98412 -.19224 2912.419 -139.382)"/><rect x="19" y="911" width="11" height="11" fill="#8934FF" rx="0" transform="matrix(-.58275 .64367 -.8591 -.7671 1038.026 1605.057)"/><rect x="1324" y="679" width="7" height="10" fill="#090238" rx="0" transform="matrix(.88488 .79355 -.49095 .68982 527.58 -409.943)"/><rect x="835" y="1050" width="11" height="21" fill="#8934FF" rx="0" transform="matrix(-.74395 .41919 -.71462 -.94151 2357.133 1916.206)"/><rect x="1736" y="733" width="12" height="24" fill="#dcc5ff" rx="0" transform="matrix(-.82748 .21861 -.68135 -1.02849 3922.24 1696.41)"/><rect x="235" y="1374" width="12" height="33" fill="#8934FF" rx="0" transform="matrix(-.08914 .93372 -1.03676 -.35842 2127.936 1659.653)"/><rect x="819" y="89" width="9" height="22" fill="#FF14BD" rx="0" transform="matrix(.22487 .96185 -.97519 .2758 724.576 -690.905)"/><rect x="151" y="947" width="12" height="19" fill="#8934FF" rx="0" transform="matrix(-.4135 .8656 -.90682 -.5201 1322.276 1296.013)"/><rect x="308" y="954" width="11" height="21" fill="#FF14BD" rx="0" transform="matrix(-.6861 .32682 -.94816 -1.00586 1812.366 1940.137)"/><rect x="1754" y="204" width="12" height="26" fill="#FF14BD" rx="0" transform="matrix(-.44359 .98652 -.91126 -.22776 2742.78 -1748.601)"/><rect x="519" y="285" width="12" height="19" fill="#8934FF" rx="0" transform="matrix(.90616 .66424 -.46307 .76412 218.679 -196.105)"/><rect x="478" y="439" width="7" height="18" fill="#8934FF" rx="0" transform="matrix(-.56527 .57921 -.9192 -.8272 1313.341 607.366)"/><rect x="1172" y="38" width="11" height="31" fill="#FF14BD" rx="0" transform="matrix(.83199 .79876 -.625 .6019 241.342 -939.792)"/><rect x="1940" y="1101" width="10" height="19" fill="#FF14BD" rx="0" transform="matrix(.61274 .92955 -.8157 .39457 1804.504 -862.296)"/><rect x="678" y="837" width="11" height="17" fill="#dcc5ff" rx="0" transform="matrix(-.82602 .42423 -.5858 -.90977 1953.9 1264.949)"/><rect x="1405" y="1311" width="8" height="20" fill="#dcc5ff" rx="0" transform="matrix(-.96636 .22499 -.25898 -.97452 3180.656 2266.74)"/><rect x="1733" y="1153" width="13" height="26" fill="#FF14BD" rx="0" transform="matrix(.7811 .86245 -.63263 .58173 1147.489 -513.728)"/><rect x="1132" y="238" width="12" height="34" fill="#8934FF" rx="0" transform="matrix(-.54547 .53984 -.97947 -.86392 2172.483 82.17)"/><rect x="1954" y="706" width="10" height="23" fill="#8934FF" rx="0" transform="matrix(.48256 1 -.91491 .17633 1819.496 -1022.59)"/><rect x="1876" y="466" width="10" height="26" fill="#090238" rx="0" transform="matrix(.30672 .9977 -1.0454 -.14022 2035.486 -1099.56)"/><rect x="1229" y="583" width="7" height="10" fill="#dcc5ff" rx="0" transform="matrix(1.0035 .1576 -.009 .9951 117.992 -342.708)"/><rect x="704" y="962" width="9" height="15" fill="#090238" rx="0" transform="matrix(.43104 1.04974 -1.00554 -.1289 1635.911 594.678)"/><rect x="284" y="1182" width="13" height="14" fill="#090238" rx="0" transform="matrix(-.99053 .37552 -.21133 -.92945 706.683 2164.71)"/><rect x="857" y="1248" width="11" height="19" fill="#8934FF" rx="0" transform="matrix(-.82229 .53513 -.55278 -.85638 2121.934 1994.07)"/><rect x="928" y="575" width="13" height="20" fill="#dcc5ff" rx="0" transform="matrix(.2354 .98721 -1.05446 -.17407 1555.314 -170.371)"/><rect x="980" y="811" width="13" height="27" fill="#8934FF" rx="0" transform="matrix(.03168 .96788 -1.04664 -.41084 1958.79 528.96)"/><rect x="1352" y="1244" width="7" height="11" fill="#FF14BD" rx="0" transform="matrix(-.18884 1.01295 -.974 -.07083 2881.447 -274.064)"/><rect x="1647" y="937" width="11" height="12" fill="#FF14BD" rx="0" transform="matrix(.44913 1.0281 -1.00407 -.0719 2220.23 -276.132)"/><rect x="704" y="989" width="12" height="33" fill="#090238" rx="0" transform="matrix(.89973 .71916 -.4588 .74472 574.273 -63.673)"/><rect x="502" y="1271" width="8" height="21" fill="#090238" rx="0" transform="matrix(-.38435 .88119 -.92178 -.48845 2163.26 1399.44)"/><rect x="1687" y="842" width="12" height="30" fill="#090238" rx="0" transform="matrix(.43963 1.00368 -.95788 .08781 2015.453 -709.603)"/><rect x="796" y="616" width="8" height="12" fill="#8934FF" rx="0" transform="matrix(1.08137 .40858 .10007 .96256 56.859 -58.998)"/><rect x="852" y="586" width="12" height="12" fill="#FF14BD" rx="0" transform="matrix(-.95877 .12233 -.36572 -.99634 2002.783 1151.934)"/><rect x="453" y="1058" width="8" height="22" fill="#090238" rx="0" transform="matrix(-.49455 .62304 -.94873 -.8268 1928.794 1790.58)"/><rect x="1975" y="1344" width="10" height="18" fill="#090238" rx="0" transform="matrix(-.88733 .37483 -.47161 -.92775 4474.458 1935.214)"/><rect x="65" y="896" width="8" height="14" fill="#8934FF" rx="0" transform="matrix(.78491 .7862 -.61333 .6597 552.638 268.977)"/><rect x="142" y="1226" width="7" height="18" fill="#090238" rx="0" transform="matrix(.63997 .92107 -.81405 .39097 1433.76 613.057)"/><rect x="1657" y="116" width="10" height="11" fill="#8934FF" rx="0" transform="matrix(1.00786 .29237 -.12375 .9563 23.4 -480.613)"/><rect x="947" y="1016" width="13" height="31" fill="#8934FF" rx="0" transform="matrix(-.9436 .24225 -.3433 -.97163 2264.015 1852.715)"/><rect x="561" y="409" width="11" height="11" fill="#FF14BD" rx="0" transform="matrix(1.11491 .78597 -.26845 .70769 232.535 -129.024)"/><rect x="332" y="131" width="11" height="24" fill="#090238" rx="0" transform="matrix(-.018 1.0094 -.9862 -.25167 472.036 -64.906)"/><rect x="1239" y="1270" width="10" height="29" fill="#FF14BD" rx="0" transform="matrix(.72053 .76897 -.69584 .64524 1265.794 -392.078)"/><rect x="1125" y="1205" width="9" height="13" fill="#8934FF" rx="0" transform="matrix(-.31072 .91355 -.9563 -.40674 2766.343 672.412)"/><rect x="47" y="952" width="8" height="10" fill="#090238" rx="0" transform="matrix(1.07498 .53857 -.0677 .89633 250.01 87.335)"/><rect x="196" y="643" width="9" height="18" fill="#090238" rx="0" transform="matrix(.71896 .65696 -.6951 .75575 439.917 38.041)"/><rect x="975" y="707" width="10" height="25" fill="#FF14BD" rx="0" transform="matrix(-.05284 1.00518 -.9797 -.28823 1665.405 241.419)"/><rect x="1195" y="1355" width="12" height="20" fill="#090238" rx="0" transform="matrix(-.25458 .93382 -.9355 -.49652 2596.783 1334.769)"/><rect x="1082" y="506" width="7" height="14" fill="#8934FF" rx="0" transform="matrix(.33355 1 -.97668 .06993 1338.934 -532.467)"/><rect x="742" y="1157" width="12" height="19" fill="#dcc5ff" rx="0" transform="matrix(-.36742 .79973 -.97355 -.60264 2546.635 1232.08)"/><rect x="593" y="1182" width="12" height="19" fill="#090238" rx="0" transform="matrix(-.06907 .99863 -.99533 -.08737 1926.887 655.536)"/><rect x="1011" y="414" width="8" height="23" fill="#dcc5ff" rx="0" transform="matrix(.25882 .95689 -.96593 .29255 1163.3 -705.666)"/><rect x="395" y="168" width="9" height="20" fill="#8934FF" rx="0" transform="matrix(1.00397 .01746 .25353 1.00046 3.44 -21.009)"/><rect x="49" y="500" width="8" height="21" fill="#090238" rx="0" transform="matrix(.22833 .9951 -.96875 .1576 633.414 370.792)"/><rect x="756" y="1339" width="10" height="12" fill="#dcc5ff" rx="0" transform="matrix(-.80204 .54873 -.58736 -.84497 2382.037 1970.461)"/><rect x="1316" y="711" width="9" height="25" fill="#090238" rx="0" transform="matrix(-.75883 .57366 -.65946 -.81928 2864.968 581.773)"/><rect x="233" y="13" width="11" height="16" fill="#dcc5ff" rx="0" transform="matrix(.93358 .44005 -.35837 .90223 23.367 -82.032)"/><rect x="1039" y="331" width="8" height="14" fill="#090238" rx="0" transform="matrix(.97911 .58814 -.35264 .80951 238.967 -585.47)"/><rect x="274" y="58" width="8" height="23" fill="#090238" rx="0" transform="matrix(.77273 .53065 -.64787 .84921 103.403 -151.61)"/><rect x="1622" y="1087" width="9" height="11" fill="#FF14BD" rx="0" transform="matrix(.43963 .94199 -.90157 .34286 1938.53 -700.476)"/><rect x="831" y="696" width="9" height="14" fill="#dcc5ff" rx="0" transform="matrix(-.03492 1 -.98932 -.30573 1526.701 337.867)"/><rect x="1164" y="466" width="12" height="28" fill="#FF14BD" rx="0" transform="matrix(-.9827 -.03555 -.01335 -1.0181 2226.735 1237.708)"/><rect x="295" y="271" width="10" height="27" fill="#8934FF" rx="0" transform="matrix(.25132 .99817 -1.0194 -.0698 599.207 15.382)"/><rect x="842" y="241" width="10" height="28" fill="#8934FF" rx="0" transform="matrix(.90004 .93015 -.6554 .43373 389.543 -447.892)"/><rect x="719" y="611" width="11" height="27" fill="#dcc5ff" rx="0" transform="matrix(.99985 0 0 1.00015 10.787 -12.741)"/><rect x="1339" y="1279" width="10" height="26" fill="#FF14BD" rx="0" transform="matrix(-.9172 .09023 -.59916 -1.03134 3762.748 2863.341)"/><rect x="626" y="1374" width="11" height="11" fill="#8934FF" rx="0" transform="matrix(-.5403 .76884 -.831 -.66834 2040.329 1938.704)"/><rect x="735" y="1232" width="12" height="33" fill="#090238" rx="0" transform="matrix(-.66433 .89395 -.7654 -.47532 2109.768 1062.159)"/><rect x="1677" y="314" width="7" height="8" fill="#8934FF" rx="0" transform="matrix(.47362 1.01563 -.8577 .27214 1096.913 -929.286)"/><rect x="1693" y="235" width="8" height="18" fill="#8934FF" rx="0" transform="matrix(-.96475 .39222 -.27675 -.92402 3398.377 -344.61)"/><rect x="1087" y="499" width="10" height="23" fill="#FF14BD" rx="0" transform="matrix(-.24214 .92846 -.97922 -.37512 1944.423 -369.104)"/><rect x="510" y="802" width="8" height="8" fill="#8934FF" rx="0" transform="matrix(-.7355 .85272 -.71313 -.53284 1361.144 743.146)"/><rect x="790" y="1255" width="9" height="12" fill="#dcc5ff" rx="0" transform="matrix(.3091 .9148 -.95552 .4073 1547.507 62.231)"/><rect x="928" y="1106" width="13" height="32" fill="#FF14BD" rx="0" transform="matrix(-.91137 .3306 -.3781 -.9601 2431.383 1725.523)"/><rect x="1522" y="187" width="13" height="14" fill="#090238" rx="0" transform="matrix(.83674 .57577 -.54182 .82228 362.058 -979.31)"/><rect x="970" y="1193" width="8" height="17" fill="#8934FF" rx="0" transform="matrix(-.75528 .69508 -.65657 -.71978 2478.127 1355.291)"/><rect x="109" y="116" width="11" height="25" fill="#8934FF" rx="0" transform="matrix(.4927 .74264 -.8871 .69252 164.503 -65.71)"/><rect x="312" y="1130" width="13" height="33" fill="#090238" rx="0" transform="matrix(-.6837 .461 -.8274 -.90475 1784.723 2093.131)"/><rect x="1680" y="997" width="11" height="12" fill="#dcc5ff" rx="0" transform="matrix(.97787 .17431 -.19106 .98857 108.007 -134.875)"/><rect x="913" y="540" width="11" height="13" fill="#dcc5ff" rx="0" transform="matrix(.84507 .56227 -.52563 .8336 492.802 -522.05)"/><rect x="938" y="65" width="10" height="22" fill="#dcc5ff" rx="0" transform="matrix(.9703 .44816 -.24192 .91887 46.397 -216.013)"/><rect x="1817" y="906" width="7" height="8" fill="#FF14BD" rx="0" transform="matrix(.19911 .89976 -1.00995 .45845 2285.132 -1401.064)"/><rect x="1331" y="709" width="10" height="26" fill="#8934FF" rx="0" transform="matrix(.84342 .94107 -.7046 .39946 1006.372 -539.704)"/><rect x="842" y="744" width="9" height="19" fill="#dcc5ff" rx="0" transform="matrix(.97942 .71592 -.38258 .74136 458.468 -200.09)"/><rect x="1813" y="718" width="13" height="14" fill="#8934FF" rx="0" transform="matrix(-.92131 .24494 -.3875 -.9824 3910.312 703.389)"/><rect x="1053" y="538" width="8" height="23" fill="#8934FF" rx="0" transform="matrix(1.0023 -.07002 -.05242 1.00137 10.422 -19.217)"/><rect x="1325" y="837" width="12" height="34" fill="#dcc5ff" rx="0" transform="matrix(-.803 .486 -.60898 -.87676 3081.61 862.82)"/><rect x="1225" y="1140" width="12" height="34" fill="#8934FF" rx="0" transform="matrix(-.91507 .50191 -.40744 -.86933 2810.547 1437.27)"/><rect x="156" y="481" width="11" height="24" fill="#8934FF" rx="0" transform="matrix(.52193 .73854 -.86731 .6887 471.905 11.499)"/><rect x="1340" y="17" width="12" height="23" fill="#8934FF" rx="0" transform="matrix(-.52992 .7257 -.84805 -.7257 2083.44 -616.87)"/><rect x="537" y="373" width="7" height="7" fill="#090238" rx="0" transform="matrix(.9794 .27602 -.20738 .96258 131.958 -163.425)"/><rect x="167" y="810" width="12" height="23" fill="#FF14BD" rx="0" transform="matrix(-.00094 .9806 -1.0194 -.3962 1056.77 1036.895)"/><rect x="1619" y="894" width="11" height="28" fill="#090238" rx="0" transform="matrix(.7732 .85834 -.70045 .51574 1252.057 -869.54)"/><rect x="561" y="1038" width="11" height="12" fill="#dcc5ff" rx="0" transform="matrix(.45162 .85638 -.8855 .53513 1285.662 -79.43)"/><rect x="1406" y="148" width="8" height="20" fill="#090238" rx="0" transform="matrix(.6809 .91578 -.78882 .40773 633.81 -1099.069)"/><rect x="1823" y="593" width="11" height="14" fill="#dcc5ff" rx="0" transform="matrix(.34551 .88349 -.94817 .46976 1709.279 -1361.161)"/><rect x="1844" y="322" width="10" height="14" fill="#FF14BD" rx="0" transform="matrix(-.32605 .9614 -.94665 -.27568 2738.046 -1325.67)"/><rect x="1679" y="1203" width="12" height="31" fill="#dcc5ff" rx="0" transform="matrix(.34584 .8708 -.9487 .50275 2185.423 -1038.497)"/><rect x="1064" y="338" width="11" height="23" fill="#8934FF" rx="0" transform="matrix(.9666 .87796 -.535 .54861 393.134 -494.651)"/><rect x="1746" y="666" width="8" height="23" fill="#dcc5ff" rx="0" transform="matrix(-.0421 .93872 -1.04912 -.36034 2733.325 -537.2)"/><rect x="318" y="347" width="11" height="19" fill="#dcc5ff" rx="0" transform="matrix(.94794 .50435 -.27264 .90987 90.492 -38.262)"/><rect x="884" y="195" width="13" height="17" fill="#8934FF" rx="0" transform="matrix(-.58423 .59978 -.8329 -.85658 1605.184 115.96)"/><rect x="528" y="918" width="10" height="20" fill="#dcc5ff" rx="0" transform="matrix(-.51566 .58474 -.94566 -.86692 1897.476 1583.786)"/><rect x="968" y="939" width="8" height="10" fill="#8934FF" rx="0" transform="matrix(.9601 .25917 -.27524 .96725 329.789 -271.943)"/><rect x="905" y="837" width="13" height="24" fill="#8934FF" rx="0" transform="matrix(.41133 .99772 -.97353 .06977 1644.12 -103.74)"/><rect x="217" y="836" width="13" height="30" fill="#FF14BD" rx="0" transform="matrix(.9994 0 -.01743 1.00061 29.69 -8.324)"/><rect x="423" y="1043" width="12" height="13" fill="#dcc5ff" rx="0" transform="matrix(1.02097 .40648 -.0549 .9576 130.62 -6.867)"/><rect x="1609" y="909" width="12" height="33" fill="#090238" rx="0" transform="matrix(.86422 .5634 -.4937 .83526 817.555 -955.712)"/><rect x="456" y="857" width="7" height="10" fill="#FF14BD" rx="0" transform="matrix(.23603 .98904 -1.04846 -.15665 1559.921 566.647)"/><rect x="1100" y="919" width="9" height="17" fill="#090238" rx="0" transform="matrix(-.70447 .7233 -.70225 -.69848 2405.787 892.545)"/><rect x="1941" y="599" width="12" height="12" fill="#dcc5ff" rx="0" transform="matrix(-.5569 .69508 -.862 -.71978 3696.679 -380.85)"/><rect x="155" y="625" width="13" height="15" fill="#dcc5ff" rx="0" transform="matrix(.93149 .34538 -.3361 .94893 309.356 -46.173)"/><rect x="1162" y="289" width="8" height="12" fill="#FF14BD" rx="0" transform="matrix(-.33747 .97324 -.93072 -.27907 1843.706 -942.152)"/><rect x="1796" y="555" width="8" height="10" fill="#FF14BD" rx="0" transform="matrix(-.8677 .1472 -.61987 -1.04733 3895.836 1501.347)"/><rect x="392" y="92" width="9" height="21" fill="#8934FF" rx="0" transform="matrix(.71402 .6625 -.68803 .76213 188.006 -294.026)"/><rect x="669" y="514" width="12" height="22" fill="#8934FF" rx="0" transform="matrix(-.40716 .89114 -.9147 -.45406 1465.935 150.078)"/><rect x="162" y="837" width="12" height="21" fill="#dcc5ff" rx="0" transform="matrix(.52906 .80303 -.8466 .60513 811.101 182.085)"/><rect x="1858" y="844" width="11" height="23" fill="#090238" rx="0" transform="matrix(-.80763 .517 -.59009 -.86044 3995.445 465.133)"/><rect x="1678" y="449" width="12" height="19" fill="#090238" rx="0" transform="matrix(-.08917 .88223 -1.082 -.50936 2540.83 -466.306)"/><rect x="532" y="394" width="9" height="11" fill="#FF14BD" rx="0" transform="matrix(-.8741 .4851 -.48448 -.87515 1184.402 507.6)"/><rect x="594" y="817" width="10" height="17" fill="#dcc5ff" rx="0" transform="matrix(.80146 .53 -.60419 .84818 529.817 -181.685)"/><rect x="573" y="404" width="12" height="32" fill="#FF14BD" rx="0" transform="matrix(-.889 .3639 -.4321 -.94798 1229.538 709.55)"/><rect x="535" y="895" width="10" height="25" fill="#FF14BD" rx="0" transform="matrix(-.15237 .989 -.9815 -.19224 1646.23 481.596)"/><rect x="1115" y="784" width="11" height="32" fill="#dcc5ff" rx="0" transform="matrix(1.0026 .05237 .03492 .99924 13.14 -18.94)"/><rect x="1090" y="1259" width="12" height="34" fill="#dcc5ff" rx="0" transform="matrix(.98012 .67945 -.38324 .7546 796.394 -238.307)"/><rect x="383" y="844" width="11" height="24" fill="#dcc5ff" rx="0" transform="matrix(.53968 .97949 -.90623 .2082 1205.855 317.612)"/><rect x="358" y="1043" width="10" height="11" fill="#090238" rx="0" transform="matrix(.08525 .95469 -1.07516 -.3102 1810.357 1058.948)"/><rect x="1762" y="419" width="7" height="7" fill="#FF14BD" rx="0" transform="matrix(-.97155 .01791 -.17017 -1.02615 3494.618 1232.023)"/><rect x="924" y="489" width="7" height="13" fill="#FF14BD" rx="0" transform="matrix(.42924 1.03275 -.9983 -.07222 1195.81 -178.073)"/><rect x="1886" y="921" width="13" height="13" fill="#FF14BD" rx="0" transform="matrix(-.96637 .29242 -.25894 -.95645 3945.904 1228.176)"/><rect x="286" y="1086" width="11" height="26" fill="#090238" rx="0" transform="matrix(-.98191 -.07335 -.40805 -1.0489 1215.242 2367.837)"/><rect x="850" y="98" width="7" height="15" fill="#FF14BD" rx="0" transform="matrix(-.32914 .97949 -.95098 -.2082 1208.264 -663.8)"/><rect x="269" y="1196" width="7" height="20" fill="#dcc5ff" rx="0" transform="matrix(.48505 1.01856 -.99024 -.01778 1719.462 1002.852)"/><rect x="1209" y="834" width="11" height="28" fill="#FF14BD" rx="0" transform="matrix(-.99573 .01748 -.17499 -1.00122 2668.02 1739.459)"/><rect x="526" y="939" width="9" height="20" fill="#dcc5ff" rx="0" transform="matrix(.92666 .62516 -.41352 .80017 504.236 -48.464)"/><rect x="744" y="173" width="7" height="16" fill="#8934FF" rx="0" transform="matrix(-.83558 .18365 -.7062 -1.04155 1593.102 489.625)"/><rect x="968" y="415" width="8" height="9" fill="#090238" rx="0" transform="matrix(.96097 .24325 -.25666 .97564 173.366 -328.386)"/><rect x="1443" y="135" width="8" height="10" fill="#090238" rx="0" transform="matrix(.87728 .59381 -.43115 .84805 182.47 -450.247)"/><rect x="375" y="513" width="8" height="17" fill="#FF14BD" rx="0" transform="matrix(.83082 .79864 -.62607 .60182 540.151 -95.03)"/><rect x="1223" y="414" width="13" height="38" fill="#090238" rx="0" transform="matrix(-.73209 .51274 -.62957 -.92502 2297.058 626.463)"/><rect x="1259" y="633" width="13" height="34" fill="#8934FF" rx="0" transform="matrix(.98902 .48748 -.26713 .87944 297.583 -405.53)"/><rect x="517" y="769" width="12" height="15" fill="#dcc5ff" rx="0" transform="matrix(.08715 .9927 -.99666 .12189 1210.152 171.802)"/><rect x="930" y="670" width="10" height="13" fill="#dcc5ff" rx="0" transform="matrix(-.77862 .58242 -.60498 -.83179 1968.969 859.504)"/><rect x="1407" y="294" width="9" height="21" fill="#dcc5ff" rx="0" transform="matrix(.74193 .711 -.66453 .711 591.345 -1063.934)"/><rect x="998" y="207" width="12" height="31" fill="#8934FF" rx="0" transform="matrix(-.91998 .51574 -.40784 -.85834 1969.892 -51.709)"/><rect x="1591" y="533" width="8" height="23" fill="#dcc5ff" rx="0" transform="matrix(1.01922 .6411 -.3012 .7917 314.985 -599.093)"/><rect x="845" y="32" width="10" height="21" fill="#090238" rx="0" transform="matrix(-.00095 1.01112 -.98888 -.12415 878.308 -646.455)"/><rect x="1161" y="410" width="9" height="10" fill="#dcc5ff" rx="0" transform="matrix(-.97605 .12204 -.245 -.9939 2467.166 624.157)"/><rect x="323" y="862" width="13" height="31" fill="#FF14BD" rx="0" transform="matrix(-.93381 .4073 -.35784 -.9148 857.154 1563.301)"/><rect x="1942" y="998" width="7" height="18" fill="#8934FF" rx="0" transform="matrix(.90116 .5922 -.44827 .8151 863.953 -1204.8)"/><rect x="1809" y="850" width="8" height="22" fill="#FF14BD" rx="0" transform="matrix(.17449 .99324 -.96972 .21112 2407.656 -1441.193)"/><rect x="905" y="722" width="11" height="24" fill="#8934FF" rx="0" transform="matrix(-.30365 .92502 -.91275 -.51274 1709.712 581.638)"/><rect x="293" y="1267" width="10" height="17" fill="#dcc5ff" rx="0" transform="matrix(-.86224 .32877 -.53753 -.95481 1355.818 2437.27)"/><rect x="627" y="161" width="11" height="24" fill="#090238" rx="0" transform="matrix(.99593 .42914 -.19447 .92029 56.11 -146.113)"/><rect x="1917" y="1348" width="10" height="18" fill="#090238" rx="0" transform="matrix(-.1048 .99832 -.99067 -.10493 3334.317 -251.232)"/><rect x="1620" y="321" width="7" height="12" fill="#FF14BD" rx="0" transform="matrix(1.13178 .72265 -.2118 .74833 128.21 -625.4)"/><rect x="354" y="1196" width="10" height="12" fill="#FF14BD" rx="0" transform="matrix(-.70735 .65696 -.70846 -.75575 1609.778 1855.743)"/><rect x="1260" y="913" width="11" height="27" fill="#FF14BD" rx="0" transform="matrix(.7487 .71406 -.65175 .71406 844.635 -460.856)"/><rect x="168" y="1323" width="9" height="17" fill="#FF14BD" rx="0" transform="matrix(.99375 .06977 -.1221 .99772 70.34 -5.983)"/><rect x="665" y="1160" width="7" height="12" fill="#dcc5ff" rx="0" transform="matrix(.9997 -.01746 .01746 1 0 0)"/><rect x="1578" y="1065" width="9" height="17" fill="#FF14BD" rx="0" transform="matrix(-1.00259 -.01752 -.35755 -1.00367 3900.45 2317.111)"/><rect x="1579" y="462" width="12" height="35" fill="#FF14BD" rx="0" transform="matrix(.30104 1.0252 -.93311 .14408 1476.175 -789.832)"/><rect x="1819" y="92" width="7" height="11" fill="#dcc5ff" rx="0" transform="matrix(-1.00338 .27602 -.12378 -.96258 3663.02 -407.2)"/><rect x="670" y="633" width="9" height="23" fill="#FF14BD" rx="0" transform="matrix(.55068 .98169 -.89152 .22664 1032.244 -80.9)"/><rect x="602" y="933" width="12" height="31" fill="#8934FF" rx="0" transform="matrix(-.79864 .47532 -.60182 -.89395 1664.392 1603.716)"/><rect x="910" y="1205" width="8" height="8" fill="#8934FF" rx="0" transform="matrix(.8826 .7659 -.51097 .68962 825.549 -96.887)"/><rect x="1578" y="1161" width="8" height="11" fill="#FF14BD" rx="0" transform="matrix(.94256 .29525 -.30404 .9657 561.468 -649.406)"/><rect x="240" y="856" width="9" height="12" fill="#8934FF" rx="0" transform="matrix(-.76588 .69252 -.6227 -.74264 1054.589 1289.72)"/><rect x="1859" y="400" width="8" height="13" fill="#090238" rx="0" transform="matrix(-.77843 .85638 -.68129 -.53513 3567.236 -1233.239)"/><rect x="415" y="809" width="8" height="12" fill="#8934FF" rx="0" transform="matrix(-.29453 .80874 -1.00638 -.63186 1507.014 1087.835)"/><rect x="917" y="1136" width="7" height="7" fill="#8934FF" rx="0" transform="matrix(.99388 .2598 -.13979 .96962 207.527 -123.997)"/><rect x="985" y="1285" width="13" height="28" fill="#090238" rx="0" transform="matrix(.9951 .14054 -.03492 1 0 0)"/><rect x="1343" y="453" width="11" height="28" fill="#8934FF" rx="0" transform="matrix(-.24325 .9397 -.97564 -.34202 2181.236 -640.452)"/><rect x="1138" y="1089" width="11" height="22" fill="#8934FF" rx="0" transform="matrix(-.67938 .79393 -.72877 -.62028 2755.528 734.052)"/><rect x="1819" y="206" width="12" height="15" fill="#dcc5ff" rx="0" transform="matrix(-.92917 .12415 -.4873 -1.01112 3724.963 557.545)"/><rect x="416" y="705" width="9" height="24" fill="#FF14BD" rx="0" transform="matrix(1.01626 .06976 .19754 .99756 43.648 -27.586)"/><rect x="1575" y="1321" width="8" height="11" fill="#8934FF" rx="0" transform="matrix(.90223 .98263 -.6893 .35765 1621.86 -216.742)"/><rect x="746" y="837" width="8" height="20" fill="#dcc5ff" rx="0" transform="matrix(.74488 .5634 -.67064 .83526 746.197 -375.1)"/><rect x="1602" y="65" width="13" height="25" fill="#dcc5ff" rx="0" transform="matrix(-.06993 1 -1.00244 .03492 1797.175 -1589.876)"/><rect x="1379" y="457" width="11" height="18" fill="#FF14BD" rx="0" transform="matrix(.71457 .93874 -.77655 .37928 902.706 -791.147)"/><rect x="430" y="947" width="8" height="18" fill="#090238" rx="0" transform="matrix(-.42528 .95164 -.91264 -.3092 1408.742 823.435)"/><rect x="610" y="583" width="8" height="22" fill="#8934FF" rx="0" transform="matrix(.39247 .87582 -.92424 .48547 892.575 -264.304)"/><rect x="72" y="285" width="12" height="32" fill="#dcc5ff" rx="0" transform="matrix(-.753 .56469 -.65452 -.83718 328.299 519.91)"/><rect x="778" y="1222" width="10" height="26" fill="#FF14BD" rx="0" transform="matrix(-.32166 .7756 -1.01943 -.6508 2632.697 1555.464)"/><rect x="1838" y="1354" width="7" height="13" fill="#8934FF" rx="0" transform="matrix(-.44094 .81697 -.90368 -.59356 3939.493 922.4)"/><rect x="584" y="494" width="12" height="14" fill="#8934FF" rx="0" transform="matrix(-.68712 .80902 -.73685 -.58779 1303.046 318.16)"/><rect x="1093" y="1348" width="8" height="22" fill="#090238" rx="0" transform="matrix(.1038 .9824 -1.0438 -.24494 2699.598 787.935)"/><rect x="446" y="77" width="7" height="7" fill="#FF14BD" rx="0" transform="matrix(.97805 .10531 -.18996 1.002 26.043 -102.69)"/><rect x="1891" y="23" width="8" height="20" fill="#090238" rx="0" transform="matrix(.91753 .84598 -.51543 .61464 259.35 -1011.06)"/><rect x="1594" y="128" width="13" height="19" fill="#dcc5ff" rx="0" transform="matrix(.20719 .96848 -.97313 .2777 1399.605 -1647.255)"/><rect x="1772" y="938" width="7" height="12" fill="#090238" rx="0" transform="matrix(-.38964 .86113 -.9178 -.5381 3311.755 236.092)"/><rect x="911" y="77" width="12" height="30" fill="#FF14BD" rx="0" transform="matrix(-.4913 .78512 -.8466 -.6825 1414.362 -302.223)"/><rect x="306" y="1210" width="11" height="26" fill="#FF14BD" rx="0" transform="matrix(-.83221 .37483 -.60805 -.92775 1661.947 2229.998)"/><rect x="1744" y="991" width="8" height="14" fill="#dcc5ff" rx="0" transform="matrix(-.70567 .78298 -.70573 -.63405 3699.504 47.498)"/><rect x="1647" y="498" width="10" height="15" fill="#dcc5ff" rx="0" transform="matrix(.61717 .89633 -.74482 .53857 866.91 -742.422)"/><rect x="1905" y="1191" width="8" height="11" fill="#8934FF" rx="0" transform="matrix(-.89059 .30269 -.39078 -.99004 3836.652 2314.77)"/><rect x="1194" y="228" width="9" height="24" fill="#8934FF" rx="0" transform="matrix(-.48481 .79783 -.87462 -.62334 1989.453 -376.779)"/><rect x="270" y="837" width="7" height="9" fill="#FF14BD" rx="0" transform="matrix(-.94525 .39457 -.30753 -.92955 832.902 1477.364)"/><rect x="474" y="1293" width="10" height="10" fill="#FF14BD" rx="0" transform="matrix(-.8361 .41301 -.54333 -.92764 1979.037 2219.782)"/><rect x="197" y="493" width="8" height="22" fill="#8934FF" rx="0" transform="matrix(.72706 .8717 -.65678 .58797 346.067 97.76)"/><rect x="1333" y="535" width="8" height="8" fill="#FF14BD" rx="0" transform="matrix(.24182 .96651 -.96985 .25898 1545.027 -939.508)"/><rect x="1640" y="1182" width="11" height="23" fill="#dcc5ff" rx="0" transform="matrix(1.00861 .24192 -.08824 .9703 280.177 -362.63)"/><rect x="161" y="191" width="10" height="15" fill="#FF14BD" rx="0" transform="matrix(1.10693 .58173 -.07792 .86245 63.66 -21.663)"/><rect x="1753" y="595" width="7" height="18" fill="#FF14BD" rx="0" transform="matrix(.35364 .95481 -.92556 .32877 1604.949 -1024.84)"/><rect x="1315" y="1244" width="8" height="12" fill="#8934FF" rx="0" transform="matrix(-.43822 .88349 -.89887 -.46976 3104.793 625.819)"/><rect x="573" y="1097" width="13" height="23" fill="#090238" rx="0" transform="matrix(-.41258 .81965 -.93114 -.57393 2102.003 1249.472)"/><rect x="1773" y="1186" width="8" height="11" fill="#dcc5ff" rx="0" transform="matrix(-.20755 .83974 -1.03445 -.63279 3626.967 1030.637)"/><rect x="143" y="972" width="9" height="18" fill="#FF14BD" rx="0" transform="matrix(.21055 .97756 -1.09959 -.3558 1488.565 1228.148)"/><rect x="1374" y="394" width="12" height="26" fill="#dcc5ff" rx="0" transform="matrix(-.99816 -.10874 -.30068 -1.0346 2978.398 1373.854)"/><rect x="501" y="397" width="10" height="27" fill="#dcc5ff" rx="0" transform="matrix(1.00817 -.15885 -.07001 1.00293 7.768 -10.045)"/><rect x="857" y="404" width="11" height="18" fill="#8934FF" rx="0" transform="matrix(.98763 .1573 -.12178 .99313 25.746 -42.178)"/><rect x="732" y="1378" width="8" height="22" fill="#FF14BD" rx="0" transform="matrix(-.2844 .80463 -1.0285 -.60633 2770.29 1729.358)"/><rect x="1644" y="816" width="9" height="18" fill="#dcc5ff" rx="0" transform="matrix(-.64692 .5153 -.8201 -.89254 3565.235 1122.877)"/><rect x="735" y="842" width="11" height="25" fill="#090238" rx="0" transform="matrix(-.43562 .8271 -.89256 -.60092 1790.433 912.92)"/><rect x="51" y="1261" width="13" height="26" fill="#FF14BD" rx="0" transform="matrix(.59502 .88322 -.8024 .48957 1384.745 591.417)"/><rect x="1675" y="802" width="11" height="13" fill="#FF14BD" rx="0" transform="matrix(.02077 1.00983 -.99027 0 2536.878 -1124.694)"/><rect x="35" y="1202" width="10" height="29" fill="#FF14BD" rx="0" transform="matrix(.71934 .79575 -.69466 .62171 856.278 433.979)"/><rect x="73" y="771" width="9" height="24" fill="#dcc5ff" rx="0" transform="matrix(.83628 .60773 -.53568 .80648 596.245 93.532)"/></svg>